Coordinates
version=1
nRows=54
nColumns=12
inDegrees=yes

Units are S.I. units (second, meters, Newtons, ...)
Angles are in degrees

endheader
time	SC_y	SC_z	SC_x	AC_y	AC_z	AC_x	GH_y	GH_z	GH_yy	EL_x	PS_y
       0.0              -36.73          15.05          62.64          51.58         -10.55          -10.4         -63.51          24.14         -31.95          102.4          136.0
   0.03117              -36.73          15.06          62.64          51.58         -10.55          -10.4         -63.52          24.15         -31.96          102.4          136.0
   0.06233              -36.73          15.06          62.63          51.58         -10.55          -10.4         -63.53          24.15         -31.98          102.4          136.0
    0.0935              -36.73          15.06          62.62          51.58         -10.54          -10.4         -63.54          24.15         -31.99          102.4          136.0
    0.1247              -36.73          15.06           62.6          51.58         -10.54          -10.4         -63.55          24.16          -32.0          102.4          136.0
    0.1558              -36.72          15.07          62.59          51.58         -10.54          -10.4         -63.56          24.17         -32.02          102.4          136.0
     0.187              -36.72          15.07          62.58          51.58         -10.53         -10.39         -63.57          24.17         -32.03          102.4          136.0
    0.2182              -36.72          15.07          62.57          51.58         -10.53         -10.39         -63.58          24.18         -32.05          102.4          136.0
    0.2493              -36.72          15.08          62.55          51.58         -10.53         -10.39         -63.59          24.18         -32.06          102.4          136.0
    0.2805              -36.72          15.08          62.54          51.58         -10.52         -10.39         -63.61          24.19         -32.08          102.4          136.0
    0.3117              -36.72          15.09          62.52          51.57         -10.52         -10.39         -63.62           24.2          -32.1          102.4          136.0
    0.3428              -36.72          15.09          62.51          51.57         -10.51         -10.39         -63.64          24.21         -32.12          102.4          136.0
     0.374              -36.72           15.1          62.49          51.57         -10.51         -10.39         -63.66          24.22         -32.15          102.4          135.9
    0.4052              -36.72           15.1          62.47          51.57          -10.5         -10.38         -63.68          24.22         -32.17          102.4          135.9
    0.4363              -36.71          15.11          62.44          51.57          -10.5         -10.38          -63.7          24.24          -32.2          102.5          135.9
    0.4675              -36.71          15.11          62.42          51.56         -10.49         -10.38         -63.72          24.25         -32.23          102.5          135.9
    0.4986              -36.71          15.12           62.4          51.56         -10.48         -10.38         -63.75          24.26         -32.26          102.5          135.9
    0.5298              -36.71          15.13          62.37          51.56         -10.47         -10.38         -63.77          24.27         -32.29          102.5          135.9
     0.561              -36.71          15.13          62.34          51.56         -10.46         -10.37          -63.8          24.29         -32.33          102.5          135.9
    0.5921               -36.7          15.14           62.3          51.55         -10.45         -10.37         -63.84           24.3         -32.37          102.5          135.9
    0.6233               -36.7          15.15          62.27          51.55         -10.44         -10.37         -63.87          24.32         -32.42          102.5          135.9
    0.6545               -36.7          15.16          62.23          51.55         -10.43         -10.36         -63.91          24.34         -32.47          102.6          135.8
    0.6856               -36.7          15.18          62.18          51.54         -10.42         -10.36         -63.95          24.36         -32.52          102.6          135.8
    0.7168              -36.69          15.19          62.13          51.54         -10.41         -10.35          -64.0          24.38         -32.58          102.6          135.8
     0.748              -36.69           15.2          62.08          51.53         -10.39         -10.35         -64.06          24.41         -32.65          102.6          135.8
    0.7791              -36.68          15.22          62.01          51.53         -10.37         -10.34         -64.12          24.44         -32.72          102.7          135.7
    0.8103              -36.68          15.24          61.94          51.52         -10.35         -10.34         -64.18          24.47         -32.81          102.7          135.7
    0.8415              -36.67          15.26          61.87          51.51         -10.33         -10.33         -64.26          24.51          -32.9          102.8          135.7
    0.8726              -36.67          15.28          61.78          51.51         -10.31         -10.32         -64.34          24.55         -33.01          102.8          135.7
    0.9038              -36.66          15.31          61.68           51.5         -10.28         -10.31         -64.44          24.59         -33.13          102.8          135.6
     0.935              -36.65          15.34          61.57          51.49         -10.24          -10.3         -64.55          24.65         -33.27          102.9          135.6
    0.9661              -36.64          15.37          61.43          51.48         -10.21         -10.29         -64.67          24.71         -33.43          103.0          135.5
    0.9973              -36.63          15.41          61.28          51.46         -10.16         -10.28         -64.82          24.78         -33.62          103.0          135.4
     1.028              -36.62          15.46          61.11          51.45         -10.11         -10.26         -64.99          24.86         -33.83          103.1          135.4
      1.06               -36.6          15.51           60.9          51.43         -10.06         -10.24         -65.19          24.96         -34.08          103.2          135.3
     1.091              -36.58          15.57          60.66          51.41         -9.988         -10.22         -65.42          25.07         -34.38          103.4          135.2
     1.122              -36.56          15.65          60.38          51.38         -9.906         -10.19          -65.7          25.21         -34.73          103.5          135.1
     1.153              -36.54          15.74          60.03          51.35         -9.808         -10.16         -66.03          25.37         -35.15          103.7          134.9
     1.184              -36.51          15.85          59.61          51.31          -9.69         -10.12         -66.43          25.56         -35.66          103.9          134.7
     1.215              -36.47          15.98          59.11          51.27         -9.545         -10.08         -66.92           25.8         -36.28          104.2          134.5
     1.247              -36.43          16.15          58.48          51.21         -9.366         -10.02         -67.53          26.09         -37.05          104.5          134.3
     1.278              -36.37          16.35          57.69          51.14         -9.143         -9.948         -68.28          26.46         -38.01          104.9          133.9
     1.309               -36.3          16.61          56.71          51.05         -8.863         -9.857         -69.23          26.92         -39.21          105.4          133.5
      1.34              -36.21          16.94          55.45          50.94         -8.506         -9.742         -70.44          27.51         -40.75          106.0          133.0
     1.371              -36.09          17.36          53.85          50.79         -8.049         -9.596         -71.99          28.26         -42.71          106.8          132.3
     1.402              -35.94           17.9          51.79          50.61         -7.463         -9.407         -73.98          29.23         -45.23          107.9          131.5
     1.434              -35.75          18.59          49.16          50.37         -6.715         -9.166         -76.51          30.46         -48.45          109.2          130.4
     1.465              -35.51          19.45          45.85          50.08         -5.773         -8.864          -79.7          32.01         -52.49          110.9          129.0
     1.496              -35.22          20.51          41.82          49.71         -4.626         -8.495         -83.59           33.9         -57.43          113.0          127.3
     1.527              -34.88          21.73          37.15          49.29         -3.297         -8.067          -88.1           36.1         -63.14          115.3          125.3
     1.558              -34.51          23.06          32.09          48.84         -1.857         -7.604         -92.98          38.47         -69.33          117.9          123.2
     1.589              -34.14          24.38          27.03          48.38        -0.4176         -7.141         -97.86          40.84         -75.52          120.5          121.1
     1.621              -33.81          25.61          22.36          47.96          0.912         -6.713         -102.4          43.03         -81.24          122.9          119.1
     1.652              -33.51          26.66          18.33           47.6          2.059         -6.344         -106.3          44.92         -86.17          124.9          117.4
